<svg width="266" height="175" viewBox="0 0 266 175" fill="none" xmlns="http://www.w3.org/2000/svg">
<path d="M221.113 158.863C229.436 158.863 235.457 157.557 239.176 154.945C242.895 152.289 244.865 147.928 245.086 141.863C245.307 138.499 245.396 135.444 245.352 132.699C245.263 129.954 245.108 126.878 244.887 123.469H235.922C236.188 126.878 236.32 130.264 236.32 133.629C236.276 136.993 236.143 140.247 235.922 143.391C235.701 145.958 234.483 147.862 232.27 149.102C230.056 150.297 226.404 150.895 221.312 150.895C216.31 150.895 212.768 150.297 210.688 149.102C208.562 147.862 207.367 145.958 207.102 143.391C206.88 140.247 206.792 137.525 206.836 135.223C206.836 132.876 206.924 129.977 207.102 126.523C207.279 123.779 208.009 121.477 209.293 119.617C210.533 117.758 213.322 116.54 217.66 115.965L227.156 114.238C232.159 113.397 235.922 112.18 238.445 110.586C240.924 108.948 242.629 106.867 243.559 104.344C244.444 101.776 244.975 98.6549 245.152 94.9805C245.285 92.5456 245.329 89.9557 245.285 87.2109C245.241 84.4219 245.152 81.7214 245.02 79.1094C244.931 73.0885 243.094 68.7943 239.508 66.2266C235.878 63.6146 229.812 62.3086 221.312 62.3086C213.477 62.3086 207.788 63.6146 204.246 66.2266C200.66 68.8385 198.757 73.1549 198.535 79.1758C198.402 81.2565 198.358 83.8464 198.402 86.9453C198.447 90 198.535 93.1654 198.668 96.4414H207.699C207.389 93.2982 207.234 90.1549 207.234 87.0117C207.234 83.8685 207.345 80.7474 207.566 77.6484C207.743 75.125 208.917 73.2656 211.086 72.0703C213.211 70.875 216.686 70.2773 221.512 70.2773C226.514 70.2773 230.1 70.875 232.27 72.0703C234.395 73.2656 235.568 75.125 235.789 77.6484C236.01 80.4818 236.121 83.3594 236.121 86.2812C236.077 89.2031 235.966 92.1029 235.789 94.9805C235.612 98.2122 234.926 100.691 233.73 102.418C232.491 104.1 229.591 105.207 225.031 105.738L215.734 107.199C210.732 107.952 206.969 109.169 204.445 110.852C201.922 112.534 200.217 114.681 199.332 117.293C198.402 119.861 197.871 122.938 197.738 126.523C197.517 129.799 197.428 132.456 197.473 134.492C197.517 136.529 197.65 138.986 197.871 141.863C198.181 147.928 200.151 152.289 203.781 154.945C207.367 157.557 213.145 158.863 221.113 158.863Z" fill="url(#paint0_linear_688_8018)"/>
<path d="M164.887 158.863C156.564 158.863 150.543 157.557 146.824 154.945C143.105 152.289 141.135 147.928 140.914 141.863C140.693 138.499 140.604 135.444 140.648 132.699C140.737 129.954 140.892 126.878 141.113 123.469H150.078C149.812 126.878 149.68 130.264 149.68 133.629C149.724 136.993 149.857 140.247 150.078 143.391C150.299 145.958 151.517 147.862 153.73 149.102C155.944 150.297 159.596 150.895 164.688 150.895C169.69 150.895 173.232 150.297 175.312 149.102C177.438 147.862 178.633 145.958 178.898 143.391C179.12 140.247 179.208 137.525 179.164 135.223C179.164 132.876 179.076 129.977 178.898 126.523C178.721 123.779 177.991 121.477 176.707 119.617C175.467 117.758 172.678 116.54 168.34 115.965L158.844 114.238C153.841 113.397 150.078 112.18 147.555 110.586C145.076 108.948 143.371 106.867 142.441 104.344C141.556 101.776 141.025 98.6549 140.848 94.9805C140.715 92.5456 140.671 89.9557 140.715 87.2109C140.759 84.4219 140.848 81.7214 140.98 79.1094C141.069 73.0885 142.906 68.7943 146.492 66.2266C150.122 63.6146 156.188 62.3086 164.688 62.3086C172.523 62.3086 178.212 63.6146 181.754 66.2266C185.34 68.8385 187.243 73.1549 187.465 79.1758C187.598 81.2565 187.642 83.8464 187.598 86.9453C187.553 90 187.465 93.1654 187.332 96.4414H178.301C178.611 93.2982 178.766 90.1549 178.766 87.0117C178.766 83.8685 178.655 80.7474 178.434 77.6484C178.257 75.125 177.083 73.2656 174.914 72.0703C172.789 70.875 169.314 70.2773 164.488 70.2773C159.486 70.2773 155.9 70.875 153.73 72.0703C151.605 73.2656 150.432 75.125 150.211 77.6484C149.99 80.4818 149.879 83.3594 149.879 86.2812C149.923 89.2031 150.034 92.1029 150.211 94.9805C150.388 98.2122 151.074 100.691 152.27 102.418C153.509 104.1 156.409 105.207 160.969 105.738L170.266 107.199C175.268 107.952 179.031 109.169 181.555 110.852C184.078 112.534 185.783 114.681 186.668 117.293C187.598 119.861 188.129 122.938 188.262 126.523C188.483 129.799 188.572 132.456 188.527 134.492C188.483 136.529 188.35 138.986 188.129 141.863C187.819 147.928 185.849 152.289 182.219 154.945C178.633 157.557 172.855 158.863 164.887 158.863Z" fill="url(#paint1_linear_688_8018)"/>
<path d="M46.4141 157.863C37.737 157.863 31.5612 156.557 27.8867 153.945C24.2122 151.333 22.2643 147.039 22.043 141.062C21.6003 130.305 21.3789 119.812 21.3789 109.586C21.3789 99.3151 21.6003 88.8008 22.043 78.043C22.2643 72.0664 24.2122 67.7943 27.8867 65.2266C31.5612 62.6146 37.737 61.3086 46.4141 61.3086C55.0469 61.3086 61.2448 62.6146 65.0078 65.2266C68.7708 67.7943 70.6745 72.0664 70.7188 78.043C70.9844 88.8451 71.1172 99.3594 71.1172 109.586C71.1172 119.812 70.9844 130.305 70.7188 141.062C70.6745 147.039 68.7708 151.333 65.0078 153.945C61.2448 156.557 55.0469 157.863 46.4141 157.863ZM46.4141 149.895C51.9036 149.895 55.7552 149.341 57.9688 148.234C60.1823 147.083 61.3555 145.224 61.4883 142.656C62.1081 131.589 62.3516 120.477 62.2188 109.32C62.1302 98.1641 61.8867 87.2292 61.4883 76.5156C61.3555 73.9036 60.1602 72.0443 57.9023 70.9375C55.6445 69.8307 51.8151 69.2773 46.4141 69.2773C40.9245 69.2773 37.0508 69.8307 34.793 70.9375C32.5794 72.0443 31.4062 73.9036 31.2734 76.5156C30.6536 87.2292 30.3659 98.1641 30.4102 109.32C30.4987 120.477 30.7865 131.589 31.2734 142.656C31.4062 145.224 32.5794 147.083 34.793 148.234C37.0508 149.341 40.9245 149.895 46.4141 149.895ZM106.014 157H82.7719V62.1719H106.346C114.58 62.1719 120.535 63.5 124.209 66.1562C127.928 68.8125 129.854 73.2174 129.987 79.3711C130.208 86.543 130.341 93.3607 130.385 99.8242C130.474 106.288 130.474 112.751 130.385 119.215C130.341 125.678 130.208 132.518 129.987 139.734C129.854 145.888 127.928 150.315 124.209 153.016C120.491 155.672 114.426 157 106.014 157ZM92.0023 70.6719V148.5H106.014C111.194 148.5 114.935 147.858 117.237 146.574C119.539 145.29 120.712 143.342 120.756 140.73C121.42 119.967 121.42 99.1602 120.756 78.3086C120.712 75.6966 119.539 73.7708 117.237 72.5312C114.979 71.2917 111.349 70.6719 106.346 70.6719H92.0023Z" fill="url(#paint2_linear_688_8018)"/>
<circle cx="52" cy="112" r="4" fill="url(#paint3_linear_688_8018)"/>
<circle cx="102" cy="112" r="4" fill="url(#paint4_linear_688_8018)"/>
<path d="M234.225 19.2044C226.362 29.0299 233.455 40.5655 218.859 52.3581C216.421 54.4535 213.416 55.7776 210.224 56.1626C207.033 56.5475 203.799 55.9759 200.932 54.5203C200.676 54.3725 200.48 54.1389 200.379 53.8609C200.279 53.5828 200.279 53.278 200.381 53.0003C203.04 46.1505 206.683 39.7244 211.194 33.9243C211.383 33.7027 211.48 33.417 211.465 33.126C211.45 32.8349 211.325 32.5606 211.114 32.3594C210.903 32.1582 210.623 32.0453 210.332 32.044C210.04 32.0427 209.759 32.1531 209.547 32.3524C203.087 37.7205 198.441 45.9868 196.812 49.156C196.743 49.2922 196.638 49.4073 196.51 49.4894C196.381 49.5714 196.232 49.6174 196.08 49.6224C195.927 49.6275 195.776 49.5914 195.642 49.5181C195.508 49.4447 195.396 49.3367 195.318 49.2054C195.248 49.1001 195.187 48.9891 195.135 48.8735C193.577 46.2212 192.781 43.1911 192.833 40.1158V40.1031C192.883 37.2669 193.551 34.4757 194.793 31.9251C196.034 29.3745 197.819 27.1262 200.02 25.3376C212.719 15.1295 228.734 16.8003 233.767 17.6603C233.925 17.6993 234.07 17.7789 234.188 17.8913C234.306 18.0037 234.392 18.1449 234.438 18.301C234.485 18.4571 234.489 18.6226 234.452 18.7811C234.415 18.9395 234.337 19.0855 234.225 19.2044ZM192.704 48.9318C192.56 49.8877 192.28 50.8181 191.872 51.6944C191.811 51.8225 191.719 51.9336 191.605 52.0179C191.491 52.1022 191.357 52.157 191.217 52.1777C191.076 52.1983 190.933 52.1841 190.8 52.1363C190.666 52.0885 190.546 52.0085 190.451 51.9034C187.06 48.0981 183.038 44.9069 178.562 42.4705C178.332 42.3479 178.066 42.3138 177.813 42.3749C177.56 42.436 177.338 42.5879 177.19 42.8017C177.042 43.0156 176.978 43.2764 177.009 43.5346C177.041 43.7929 177.167 44.0304 177.362 44.2021C181.139 47.4692 184.588 51.0977 187.659 55.0359C187.736 55.1399 187.79 55.2594 187.816 55.3861C187.843 55.5128 187.841 55.6438 187.812 55.77C187.783 55.8962 187.727 56.0145 187.648 56.117C187.569 56.2194 187.468 56.3035 187.354 56.3633C185.954 57.054 184.427 57.4486 182.868 57.5225C181.308 57.5964 179.751 57.3479 178.292 56.7927C166.449 52.5051 168.46 43.6739 161.346 39.1633C161.248 39.1131 161.164 39.0378 161.103 38.945C161.043 38.8523 161.007 38.7452 161.001 38.6345C160.995 38.5239 161.018 38.4135 161.067 38.3145C161.117 38.2155 161.192 38.1312 161.284 38.0701C164.296 36.4361 174.117 31.904 184.39 35.6128C186.788 36.4842 188.875 38.044 190.39 40.0968V40.1095C190.339 43.1848 191.135 46.2148 192.693 48.8672L192.704 48.9318Z" fill="#4CAF50"/>
<defs>
<linearGradient id="paint0_linear_688_8018" x1="221.5" y1="95" x2="222" y2="140" gradientUnits="userSpaceOnUse">
<stop stop-color="#4CAF50"/>
<stop offset="1" stop-color="#009688"/>
</linearGradient>
<linearGradient id="paint1_linear_688_8018" x1="164.5" y1="95" x2="164" y2="140" gradientUnits="userSpaceOnUse">
<stop stop-color="#4CAF50"/>
<stop offset="1" stop-color="#009688"/>
</linearGradient>
<linearGradient id="paint2_linear_688_8018" x1="76" y1="94" x2="75.7625" y2="139.004" gradientUnits="userSpaceOnUse">
<stop stop-color="#4CAF50"/>
<stop offset="1" stop-color="#009688"/>
</linearGradient>
<linearGradient id="paint3_linear_688_8018" x1="52" y1="108" x2="51.4305" y2="125.984" gradientUnits="userSpaceOnUse">
<stop stop-color="#4CAF50"/>
<stop offset="1" stop-color="#009688"/>
</linearGradient>
<linearGradient id="paint4_linear_688_8018" x1="102" y1="108" x2="101.431" y2="125.984" gradientUnits="userSpaceOnUse">
<stop stop-color="#4CAF50"/>
<stop offset="1" stop-color="#009688"/>
</linearGradient>
</defs>
</svg>
